<?xml version="1.0" standalone="no"?><!DOCTYPE svg PUBLIC "-//W3C//DTD SVG 1.1//EN" "http://www.w3.org/Graphics/SVG/1.1/DTD/svg11.dtd"><svg t="1659540494272" class="icon" viewBox="0 0 1024 1024" version="1.1" xmlns="http://www.w3.org/2000/svg" p-id="1904" xmlns:xlink="http://www.w3.org/1999/xlink" width="200" height="200"><defs><style type="text/css">@font-face { font-family: feedback-iconfont; src: url("//at.alicdn.com/t/font_1031158_u69w8yhxdu.woff2?t=1630033759944") format("woff2"), url("//at.alicdn.com/t/font_1031158_u69w8yhxdu.woff?t=1630033759944") format("woff"), url("//at.alicdn.com/t/font_1031158_u69w8yhxdu.ttf?t=1630033759944") format("truetype"); }
</style></defs><path d="M736.9 414.2H287.1v39.1h449.8v-39.1z m107.5-273.8h-88v-4.9c0-35.1-28.5-63.6-63.6-63.6s-63.6 28.5-63.6 63.6v4.9H394.7v-4.9c0-35.1-28.5-63.6-63.6-63.6s-63.6 28.5-63.6 63.6v4.9h-88c-21.6 0-39.1 17.5-39.1 39.1v733.3c0 21.6 17.5 39.1 39.1 39.1h664.9c21.6 0 39.1-17.5 39.1-39.1V179.6c0.1-21.6-17.5-39.2-39.1-39.2z m-176-4.8c0-13.5 10.9-24.4 24.4-24.4 13.5 0 24.4 10.9 24.4 24.4v58.7c0 13.5-10.9 24.4-24.4 24.4-13.5 0-24.4-10.9-24.4-24.4v-58.7z m-361.7 0c0-13.5 10.9-24.4 24.4-24.4 13.5 0 24.4 10.9 24.4 24.4v58.7c0 13.5-10.9 24.4-24.4 24.4-13.5 0-24.4-10.9-24.4-24.4v-58.7z m537.7 777.3H179.6V306.7h664.9v606.2z m0-645.3H179.6v-88h88v14.7c0 35.1 28.5 63.6 63.6 63.6s63.6-28.5 63.6-63.6v-14.7h234.7v14.7c0 35.1 28.5 63.6 63.6 63.6s63.6-28.5 63.6-63.6v-14.7h88v88zM736.9 512H287.1v39.1h449.8V512zM570.7 707.6H287.1v39.1h283.6v-39.1z m166.2-97.8H287.1v39.1h449.8v-39.1z" p-id="1905"></path></svg>