<?xml version="1.0" standalone="no"?><!DOCTYPE svg PUBLIC "-//W3C//DTD SVG 1.1//EN" "http://www.w3.org/Graphics/SVG/1.1/DTD/svg11.dtd"><svg t="1659540508047" class="icon" viewBox="0 0 1024 1024" version="1.1" xmlns="http://www.w3.org/2000/svg" p-id="2324" xmlns:xlink="http://www.w3.org/1999/xlink" width="200" height="200"><defs><style type="text/css">@font-face { font-family: feedback-iconfont; src: url("//at.alicdn.com/t/font_1031158_u69w8yhxdu.woff2?t=1630033759944") format("woff2"), url("//at.alicdn.com/t/font_1031158_u69w8yhxdu.woff?t=1630033759944") format("woff"), url("//at.alicdn.com/t/font_1031158_u69w8yhxdu.ttf?t=1630033759944") format("truetype"); }
</style></defs><path d="M828.952381 892.342857H195.047619V414.47619L4.87619 653.409524l78.019048 58.514286 14.628572-19.504762v297.447619h828.95238v-243.809524h-97.523809zM195.047619 209.67619h63.390476V292.571429h502.247619V209.67619H828.952381v487.619048l190.171429-243.809524-78.019048-58.514285-14.628572 14.628571V112.152381h-160.914285V34.133333H258.438095v78.019048H97.52381v248.685714h97.523809V209.67619z m160.914286-78.019047h307.2v58.514286H355.961905V131.657143z" p-id="2325"></path><path d="M658.285714 575.390476v-78.019047h-82.895238l68.266667-121.904762-68.266667-39.009524-68.266666 126.780952-73.142858-126.780952-68.266666 39.009524L438.857143 497.371429H351.085714v78.019047h117.028572v48.761905H351.085714v78.019048h117.028572v117.028571h78.019047v-117.028571h112.152381v-78.019048h-112.152381v-48.761905z" p-id="2326"></path></svg>