<?xml version="1.0" standalone="no"?><!DOCTYPE svg PUBLIC "-//W3C//DTD SVG 1.1//EN" "http://www.w3.org/Graphics/SVG/1.1/DTD/svg11.dtd"><svg t="1659540491143" class="icon" viewBox="0 0 1024 1024" version="1.1" xmlns="http://www.w3.org/2000/svg" p-id="1765" xmlns:xlink="http://www.w3.org/1999/xlink" width="200" height="200"><defs><style type="text/css">@font-face { font-family: feedback-iconfont; src: url("//at.alicdn.com/t/font_1031158_u69w8yhxdu.woff2?t=1630033759944") format("woff2"), url("//at.alicdn.com/t/font_1031158_u69w8yhxdu.woff?t=1630033759944") format("woff"), url("//at.alicdn.com/t/font_1031158_u69w8yhxdu.ttf?t=1630033759944") format("truetype"); }
</style></defs><path d="M418.909091 116.363636c4.654545 0 9.309091 0 13.963636 2.327273 27.927273 4.654545 51.2 27.927273 58.181818 53.527273 4.654545 20.945455 2.327273 41.890909-9.30909 60.509091-9.309091 13.963636-9.309091 32.581818 0 46.545454 9.309091 13.963636 23.272727 23.272727 39.563636 23.272728H674.909091c25.6 0 46.545455 20.945455 46.545454 46.545454v155.927273c0 16.290909 9.309091 32.581818 23.272728 39.563636 6.981818 4.654545 13.963636 6.981818 23.272727 6.981818s16.290909-2.327273 23.272727-6.981818c11.636364-6.981818 25.6-11.636364 39.563637-11.636363 6.981818 0 13.963636 0 20.945454 2.327272 27.927273 6.981818 48.872727 32.581818 53.527273 58.181818 4.654545 23.272727-2.327273 46.545455-16.290909 62.836364-13.963636 18.618182-34.909091 27.927273-58.181818 27.927273-13.963636 0-25.6-4.654545-39.563637-11.636364-6.981818-4.654545-16.290909-6.981818-23.272727-6.981818-6.981818 0-16.290909 2.327273-23.272727 6.981818-13.963636 9.309091-23.272727 23.272727-23.272728 39.563637V861.090909c0 25.6-20.945455 46.545455-46.545454 46.545455h-88.436364v-6.981819c0-93.090909-76.8-169.890909-169.890909-169.890909-9.309091 0-18.618182 0-30.254545 2.327273-60.509091 9.309091-111.709091 55.854545-132.654546 114.036364-6.981818 20.945455-9.309091 39.563636-9.309091 60.509091H162.909091c-25.6 0-46.545455-20.945455-46.545455-46.545455v-79.127273h6.981819c51.2 0 97.745455-20.945455 130.327272-60.509091 32.581818-37.236364 46.545455-88.436364 37.236364-139.636363-9.309091-60.509091-55.854545-111.709091-114.036364-132.654546-16.290909-4.654545-34.909091-6.981818-53.527272-6.981818H116.363636v-93.090909c0-25.6 20.945455-46.545455 46.545455-46.545454h148.945454c16.290909 0 32.581818-9.309091 39.563637-23.272728 9.309091-13.963636 6.981818-32.581818 0-46.545454-6.981818-11.636364-11.636364-25.6-11.636364-39.563637 0-20.945455 6.981818-39.563636 23.272727-53.527272 13.963636-16.290909 34.909091-23.272727 55.854546-23.272728m0-46.545454c-67.490909 0-123.345455 55.854545-123.345455 123.345454 0 23.272727 6.981818 44.218182 18.618182 62.836364H162.909091c-51.2 0-93.090909 41.890909-93.090909 93.090909v93.090909c0 25.6 20.945455 46.545455 46.545454 46.545455H123.345455c11.636364 0 25.6 2.327273 39.563636 6.981818 41.890909 13.963636 74.472727 51.2 81.454545 95.418182 13.963636 76.8-46.545455 144.290909-121.018181 144.290909h-4.654546H116.363636c-25.6 0-46.545455 20.945455-46.545454 46.545454V861.090909c0 51.2 41.890909 93.090909 93.090909 93.090909h86.109091c25.6 0 48.872727-20.945455 46.545454-48.872727 0-13.963636 0-27.927273 6.981819-44.218182 13.963636-41.890909 51.2-74.472727 95.418181-83.781818 6.981818-2.327273 13.963636-2.327273 20.945455-2.327273 67.490909 0 123.345455 55.854545 123.345454 123.345455v4.654545c0 25.6 18.618182 48.872727 46.545455 48.872727H674.909091c51.2 0 93.090909-41.890909 93.090909-93.090909v-144.290909c18.618182 11.636364 39.563636 18.618182 62.836364 18.618182 74.472727 0 134.981818-67.490909 121.018181-146.618182-9.309091-44.218182-41.890909-83.781818-88.436363-95.418182-11.636364-2.327273-23.272727-4.654545-34.909091-4.654545-23.272727 0-44.218182 6.981818-62.836364 18.618182V349.090909c0-51.2-41.890909-93.090909-93.090909-93.090909h-151.272727c16.290909-27.927273 23.272727-60.509091 13.963636-95.418182-11.636364-44.218182-48.872727-79.127273-93.090909-88.436363-9.309091-2.327273-16.290909-2.327273-23.272727-2.327273z" fill="" p-id="1766"></path></svg>